{"title":"Harry Potter and the Deathly Hallows Part 2 (2011) DVDRip NL ges","uid":6818098,"size":896659122,"categoryP":"video","categoryS":"movies","magnet":"?xt=urn:btih:81e113e144a1746c4a1ae53ccf931d95abb5d553&amp;dn=Harry+Potter+and+the+Deathly+Hallows+Part+2+%282011%29+DVDRip+NL+ges&amp;tr=udp%3A%2F%2Ftracker.openbittorrent.com%3A80&amp;tr=udp%3A%2F%2Fopen.demonii.com%3A1337&amp;tr=udp%3A%2F%2Ftracker.coppersurfer.tk%3A6969&amp;tr=udp%3A%2F%2Fexodus.desync.com%3A6969","seeders":4,"leechers":1,"uploader":"Koedje","files":-1,"time":1321297233,"description":" &lt;a href=&quot;http://img440.imageshack.us/img440/5695/harrypotterandthedeathll.jpg&quot; rel=&quot;nofollow&quot; target=&quot;_NEW&quot;&gt;http://img440.imageshack.us/img440/5695/harrypotterandthedeathll.jpg&lt;/a&gt;\n\n\nVerenigd Koninkrijk / Verenigde Staten\nFantasy / Avontuur\n130 minuten\n\ngeregisseerd door David Yates\nmet Daniel Radcliffe, Emma Watson en Rupert Grint\n\nHet tweede deel van het zevende boek zal Harry Potter (Daniel Radcliffe) dichter bij de dood brengen dan ooit, \nterwijl hij ervoor kiest om zijn zoektocht naar de Gruzielementen voort te zetten, met de hulp van Ron (Rupert Grint) en Hermelien (Emma Watson). \nMaar ondertussen woedt de oorlog voort, terwijl steeds meer geliefden van Harry het loodje moeten leggen. \nMaar de tovenaarswereld zal opstaan voor nog een laatste slag, de slag waarin de ultieme confrontatie tussen De Jongen Die Bleef Leven en de Heer van het Duister (Ralph Fiennes) zal plaatsvinden. \nZal het Harry lukken om Voldemort weer sterfelijk te maken en hem voorgoed te verslaan?\n\n\nNL gesproken\n\n\n\n\nScreenshots:\n &lt;a href=&quot;\nhttp://picturestack.com/293/849/3FJScreenhot1TTW.jpg&quot; rel=&quot;nofollow&quot; target=&quot;_NEW&quot;&gt;\nhttp://picturestack.com/293/849/3FJScreenhot1TTW.jpg&lt;/a&gt;\n &lt;a href=&quot;\nhttp://picturestack.com/293/849/wyYScreenhot2LTl.jpg&quot; rel=&quot;nofollow&quot; target=&quot;_NEW&quot;&gt;\nhttp://picturestack.com/293/849/wyYScreenhot2LTl.jpg&lt;/a&gt;\n &lt;a href=&quot;\nhttp://picturestack.com/293/849/92UScreenhot3w0n.jpg&quot; rel=&quot;nofollow&quot; target=&quot;_NEW&quot;&gt;\nhttp://picturestack.com/293/849/92UScreenhot3w0n.jpg&lt;/a&gt;\n\n\n\n\nINFO;\n\n\nFormat                                   : AVI\nFormat/Info                              : Audio Video Interleave\nFile size                                : 851 MiB\nDuration                                 : 2h 5mn\nOverall bit rate                         : 951 Kbps\n\n\nVideo\nID                                       : 0\nFormat                                   : MPEG-4 Visual\nFormat profile                           : Advanced Simple@L5\nFormat settings, BVOP                    : 1\nFormat settings, QPel                    : No\nFormat settings, GMC                     : No warppoints\nFormat settings, Matrix                  : Custom\nCodec ID                                 : XVID\nCodec ID/Hint                            : XviD\nDuration                                 : 2h 5mn\nBit rate                                 : 560 Kbps\nWidth                                    : 640 pixels\nHeight                                   : 272 pixels\nDisplay aspect ratio                     : 2.35:1\nFrame rate                               : 25.000 fps\nColor space                              : YUV\nChroma subsampling                       : 4:2:0\nBit depth                                : 8 bits\nScan type                                : Progressive\nCompression mode                         : Lossy\nBits/(Pixel*Frame)                       : 0.129\nStream size                              : 501 MiB (59%)\nWriting library                          : XviD 64\n\nAudio\nID                                       : 1\nFormat                                   : AC-3\nFormat/Info                              : Audio Coding 3\nMode extension                           : CM (complete main)\nCodec ID                                 : 2000\nDuration                                 : 2h 5mn\nBit rate mode                            : Constant\nBit rate                                 : 384 Kbps\nChannel(s)                               : 6 channels\nChannel positions                        : Front: L C R, Side: L R, LFE\nSampling rate                            : 48.0 KHz\nBit depth                                : 16 bits\nCompression mode                         : Lossy\nDelay relative to video                  : 22ms\nStream size                              : 344 MiB (40%)\nAlignment                                : Split accross\n\n\n &lt;a href=&quot;\nhttp://www.imdb.com/title/tt1201607/&quot; rel=&quot;nofollow&quot; target=&quot;_NEW&quot;&gt;\nhttp://www.imdb.com/title/tt1201607/&lt;/a&gt; &lt;a href=&quot;\nhttp://www.moviemeter.nl/film/66863&quot; rel=&quot;nofollow&quot; target=&quot;_NEW&quot;&gt;\nhttp://www.moviemeter.nl/film/66863&lt;/a&gt;\n\nDeze film wordt u aangeboden door het DutchReleaseTeam.\nVoor de reviews van de nieuwste films, muziek, series, games etc\nga dan eens naar http://www.hetmultimediacafe.be\n\nDutchReleaseteam = Hardcoded Dutch Subs","torrent":{"xt":"urn:btih:81e113e144a1746c4a1ae53ccf931d95abb5d553","amp;dn":"Harry+Potter+and+the+Deathly+Hallows+Part+2+%282011%29+DVDRip+NL+ges","amp;tr":["udp%3A%2F%2Ftracker.openbittorrent.com%3A80","udp%3A%2F%2Fopen.demonii.com%3A1337","udp%3A%2F%2Ftracker.coppersurfer.tk%3A6969","udp%3A%2F%2Fexodus.desync.com%3A6969"],"infoHash":"81e113e144a1746c4a1ae53ccf931d95abb5d553","infoHashBuffer":{"type":"Buffer","data":[129,225,19,225,68,161,116,108,74,26,229,60,207,147,29,149,171,181,213,83]},"announce":[],"urlList":[]}}